# xmcd CD database file
#
# Track frame offsets:
#	150
#	28352
#	48892
#	70790
#	94605
#	119285
#	140295
#	164070
#	185807
#	211122
#	230045
#	255105
#
# Disc length: 3682 seconds
#
# Revision: 1
# Processed by: cddbd v1.5.1PL2 Copyright (c) Steve Scherf et al.
# Submitted via: CDex 1.51
#
DISCID=a60e600c
DTITLE=Pinetop Perkins - Boogie woogie King
DYEAR=1986
DGENRE=Jazz
TTITLE0=pinetop is just top
TTITLE1=pinetop's boogie woogie
TTITLE2=take a little walk with me
TTITLE3=rockin' the boogie
TTITLE4=so many days
TTITLE5=jacksontown gal
TTITLE6=sweet black angel
TTITLE7=lend me your love
TTITLE8=back at the ch
TTITLE9=come baby
TTITLE10=luther's blues
TTITLE11=mother in law
EXTD=YEAR: 1986
EXTT0=
EXTT1=
EXTT2=
EXTT3=
EXTT4=
EXTT5=
EXTT6=
EXTT7=
EXTT8=
EXTT9=
EXTT10=
EXTT11=
PLAYORDER=
